<svg xmlns="http://www.w3.org/2000/svg" viewBox="0 0 32 32.15"><defs><style>.a{fill:none;}</style></defs><title>icon-powerconsumption</title><path d="M13.81,3.17a14,14,0,0,0-3.44,26.62l.28-2.06a12,12,0,0,1,3-22.49l.28-2.09Z" transform="translate(0 -0.85)"/><path d="M25.07,6.38,24,8.09a11.95,11.95,0,0,1-6.91,20.83L15.78,31H16A14,14,0,0,0,25.07,6.38Z" transform="translate(0 -0.85)"/><rect class="a" y="0.15" width="32" height="32"/><polygon points="17.67 0 10.84 17.67 18 17.67 12.12 30.66 23.89 14.68 16.67 14.68 26.07 0 17.67 0"/></svg>