<?xml version="1.0" encoding="utf-8"?>
<!-- Generator: Adobe Illustrator 23.1.0, SVG Export Plug-In . SVG Version: 6.00 Build 0)  -->
<svg version="1.1" xmlns="http://www.w3.org/2000/svg" xmlns:xlink="http://www.w3.org/1999/xlink" x="0px" y="0px"
	 viewBox="0 0 32 32" style="enable-background:new 0 0 32 32;" xml:space="preserve">
<style type="text/css">
	.st0{opacity:0.32;fill:#FFFFFF;}
	.st1{opacity:0.4;fill:#FFFFFF;}
	.st2{fill:none;}
	.st3{opacity:0.7;fill:#FFFFFF;}
</style>
<g id="Layer_2">
</g>
<g id="icon">
	<path class="st0" d="M16,2C8.3,2,2,8.3,2,16s6.3,14,14,14s14-6.3,14-14S23.7,2,16,2z"/>
	<title>face--pending</title>
	<path class="st1" d="M16,2C8.3,2,2,8.3,2,16s6.3,14,14,14s14-6.3,14-14S23.7,2,16,2z M16,28C9.4,28,4,22.6,4,16S9.4,4,16,4
		s12,5.4,12,12S22.6,28,16,28z"/>
	<rect id="_Transparent_Rectangle_" class="st2" width="32" height="32"/>
	<polygon class="st3" points="11.6,15.9 18.2,9.3 19.1,10.2 13.5,15.9 19.1,21.5 18.2,22.4 	"/>
	<rect id="_x3C_Transparent_Rectangle_x3E_" x="6.1" y="5.4" class="st2" width="20.9" height="20.9"/>
</g>
</svg>
