<?xml version="1.0" encoding="UTF-8" standalone="no"?>
<svg
   xmlns:dc="http://purl.org/dc/elements/1.1/"
   xmlns:cc="http://creativecommons.org/ns#"
   xmlns:rdf="http://www.w3.org/1999/02/22-rdf-syntax-ns#"
   xmlns:svg="http://www.w3.org/2000/svg"
   xmlns="http://www.w3.org/2000/svg"
   id="svg74"
   version="1.1"
   viewBox="0 0 32 32">
  <metadata
     id="metadata80">
    <rdf:RDF>
      <cc:Work
         rdf:about="">
        <dc:format>image/svg+xml</dc:format>
        <dc:type
           rdf:resource="http://purl.org/dc/dcmitype/StillImage" />
        <dc:title></dc:title>
      </cc:Work>
    </rdf:RDF>
  </metadata>
  <defs
     id="defs78" />
  <path
     style="fill:#ffffff"
     id="path70"
     d="M16 4a5 5 0 1 1-5 5 5 5 0 0 1 5-5m0-2a7 7 0 1 0 7 7 7 7 0 0 0-7-7zM26 30h-2v-5a5 5 0 0 0-5-5h-6a5 5 0 0 0-5 5v5H6v-5a7 7 0 0 1 7-7h6a7 7 0 0 1 7 7z" />
  <path
     id="path72"
     d="M0 0h32v32H0z"
     fill="none"
     data-name="&lt;Transparent Rectangle&gt;" />
</svg>
