<?xml version="1.0" encoding="UTF-8" standalone="no"?>
<svg
   xmlns:dc="http://purl.org/dc/elements/1.1/"
   xmlns:cc="http://creativecommons.org/ns#"
   xmlns:rdf="http://www.w3.org/1999/02/22-rdf-syntax-ns#"
   xmlns:svg="http://www.w3.org/2000/svg"
   xmlns="http://www.w3.org/2000/svg"
   id="svg191"
   version="1.1"
   viewBox="0 0 32 32">
  <metadata
     id="metadata197">
    <rdf:RDF>
      <cc:Work
         rdf:about="">
        <dc:format>image/svg+xml</dc:format>
        <dc:type
           rdf:resource="http://purl.org/dc/dcmitype/StillImage" />
        <dc:title></dc:title>
      </cc:Work>
    </rdf:RDF>
  </metadata>
  <defs
     id="defs195" />
  <path
     style="fill:#ffffff"
     id="path179"
     d="M23 27.18l-2.59-2.59L19 26l4 4 7-7-1.41-1.41L23 27.18z" />
  <circle
     style="fill:#ffffff"
     id="circle181"
     r="1"
     cy="8"
     cx="11" />
  <circle
     style="fill:#ffffff"
     id="circle183"
     r="1"
     cy="16"
     cx="11" />
  <circle
     style="fill:#ffffff"
     id="circle185"
     r="1"
     cy="24"
     cx="11" />
  <path
     style="fill:#ffffff"
     id="path187"
     d="M24 3H8a2 2 0 0 0-2 2v22a2 2 0 0 0 2 2h8v-2H8v-6h18V5a2 2 0 0 0-2-2zm0 16H8v-6h16zm0-8H8V5h16z" />
  <path
     id="path189"
     d="M0 0h32v32H0z"
     fill="none"
     data-name="&lt;Transparent Rectangle&gt;" />
</svg>
