<svg id="Vector_based" data-name="Vector based" xmlns="http://www.w3.org/2000/svg" xmlns:xlink="http://www.w3.org/1999/xlink" viewBox="0 0 138.09 53.17"><defs><style>.cls-1{fill:#a7a9ac;}.cls-2{fill:url(#linear-gradient);}.cls-3{fill:url(#linear-gradient-2);}.cls-4{fill:url(#linear-gradient-3);}.cls-5{fill:url(#linear-gradient-4);}.cls-6{fill:#636467;}.cls-7{font-size:11px;fill:#03a2d0;font-family:Arial-ItalicMT, Arial;font-style:italic;}</style><linearGradient id="linear-gradient" x1="30.38" y1="52.44" x2="30.38" y2="6.2" gradientTransform="matrix(1, 0, 0, -1, 0, 60)" gradientUnits="userSpaceOnUse"><stop offset="0" stop-color="#01b0da"/><stop offset="1" stop-color="#078bc0"/></linearGradient><linearGradient id="linear-gradient-2" x1="29.97" y1="47.26" x2="29.97" y2="4.86" xlink:href="#linear-gradient"/><linearGradient id="linear-gradient-3" x1="54.23" y1="39.5" x2="54.23" y2="6.11" gradientTransform="matrix(1, 0, 0, -1, 0, 60)" gradientUnits="userSpaceOnUse"><stop offset="0" stop-color="#a5ce43"/><stop offset="1" stop-color="#8ec744"/></linearGradient><linearGradient id="linear-gradient-4" x1="54.79" y1="39.5" x2="54.79" y2="6.11" xlink:href="#linear-gradient-3"/></defs><title>Logo_BuiltOn</title><g id="Layer_1-2" data-name="Layer 1-2"><path class="cls-1" d="M153.83,29.32a6,6,0,1,0-.08,5.18l-1.21-.57a4.69,4.69,0,1,1,.07-4Z" transform="translate(-15.74 -3.83)"/><path class="cls-2" d="M24.86,30.3a17.4,17.4,0,0,0,3.76,10.81,2.46,2.46,0,0,0-.07.29,3.32,3.32,0,0,0-.11.83A3.56,3.56,0,1,0,32,38.67h0l-.38,0a1.57,1.57,0,0,0-.3.05,13.84,13.84,0,0,1,2.54-19.42,13.61,13.61,0,0,1,2-1.31h0V4.5l-.25.07c-.78.2-1.55.44-2.3.71-.42.15-.84.32-1.24.48h0V16.18l0,0A17.39,17.39,0,0,0,24.86,30.3Z" transform="translate(-15.74 -3.83)"/><path class="cls-3" d="M42.47,35.06a4.71,4.71,0,0,1-4.71-4.65H33.83a8.51,8.51,0,0,0,6.79,8.3V53.37A23,23,0,0,1,24.23,16.15l.33,0h.32a3.5,3.5,0,1,0-3.49-3.51,3.54,3.54,0,0,0,.17,1.12A26.6,26.6,0,0,0,42.32,57c.46,0,.91,0,1.36,0l.52,0h0V34.74A4.87,4.87,0,0,1,42.47,35.06Z" transform="translate(-15.74 -3.83)"/><path class="cls-4" d="M59.17,26A17.36,17.36,0,0,0,56,19.62a3.2,3.2,0,0,0,.1-.42,3.34,3.34,0,0,0,.08-.7,3.56,3.56,0,1,0-3.56,3.56A4,4,0,0,0,53.3,22a13.85,13.85,0,0,1-2.55,19.42,13.55,13.55,0,0,1-2,1.3V56.22l1-.28c.93-.28,1.85-.6,2.76-1V44.55A17.45,17.45,0,0,0,59.17,26Z" transform="translate(-15.74 -3.83)"/><path class="cls-5" d="M63.27,46.76a26.59,26.59,0,0,0-21-42.93c-.53,0-1.06,0-1.58,0h0V26h0a4.58,4.58,0,0,1,1.67-.35h.09a4.71,4.71,0,0,1,4.72,4.7h0v.07h3.59a8.48,8.48,0,0,0-6.52-8.22V7.48a23,23,0,0,1,16.23,37h0a3.56,3.56,0,0,0-4,3,4.38,4.38,0,0,0,0,.51A3.57,3.57,0,0,0,60,51.6h0A3.57,3.57,0,0,0,63.51,48a3.43,3.43,0,0,0-.15-1A1.22,1.22,0,0,0,63.27,46.76Z" transform="translate(-15.74 -3.83)"/><polygon class="cls-1" points="125.15 33.79 125.15 22.22 123.64 22.22 118.94 31.76 114.24 22.22 112.7 22.22 112.7 33.79 114.05 33.79 114.05 24.99 118.4 33.79 119.48 33.79 123.82 24.99 123.82 33.79 125.15 33.79"/><path class="cls-6" d="M114.57,30.18A3.45,3.45,0,0,0,112,29.09a3.41,3.41,0,0,0-1.34.27,5.22,5.22,0,0,0-1.17.73v-.88h-1.37v8.41h1.37V32.84a2.49,2.49,0,0,1,.67-1.78,2.43,2.43,0,0,1,3.42,0l0,0a2.57,2.57,0,0,1,.67,1.77v4.78h1.33V32.76a3.6,3.6,0,0,0-1.05-2.58" transform="translate(-15.74 -3.83)"/><path class="cls-6" d="M96.41,35.35A4,4,0,0,1,94.84,37a4.4,4.4,0,0,1-2.26.6h-2v2.77h-1.3V29.21h3.27a4.34,4.34,0,0,1,3.09,1.22,4.12,4.12,0,0,1,.8,4.92m-5.86,1h1.86a3.09,3.09,0,0,0,2.18-.86,2.76,2.76,0,0,0,.89-2.11,2.66,2.66,0,0,0-.87-2.07,3,3,0,0,0-2.16-.82h-1.9Z" transform="translate(-15.74 -3.83)"/><path class="cls-6" d="M107,33.85a1.68,1.68,0,0,0,0-.44,4.53,4.53,0,1,0-4.53,4.32,4.52,4.52,0,0,0,3.86-2.11l-1-.79a3.21,3.21,0,0,1-2.81,1.61,3,3,0,0,1-.34-6.09h.34a3.18,3.18,0,0,1,3,2.12s0,.2,0,.22h-5v1.14Z" transform="translate(-15.74 -3.83)"/><path class="cls-6" d="M86.55,31.83a4.7,4.7,0,1,1-4.7-4.69h0a4.69,4.69,0,0,1,4.7,4.69m1.33,0a6,6,0,1,0-6,6,6,6,0,0,0,6-6h0" transform="translate(-15.74 -3.83)"/><path class="cls-1" d="M125.74,34.15a2.2,2.2,0,0,1-2.18,2.2h-5V32h5a2.2,2.2,0,0,1,2.18,2.2M125,29a1.64,1.64,0,0,1-1.63,1.64h-4.82V27.35h4.81A1.65,1.65,0,0,1,125,29m.3,2.17a2.91,2.91,0,0,0-1.84-5.09h-6.24V37.63h6.6a3.47,3.47,0,0,0,1.49-6.47" transform="translate(-15.74 -3.83)"/></g><text class="cls-7" transform="translate(61.42 18.28)">Built on</text></svg>